<?xml version="1.0" encoding="utf-8"?>
<!-- Generator: Adobe Illustrator 27.5.0, SVG Export Plug-In . SVG Version: 6.00 Build 0)  -->
<svg version="1.1" xmlns="http://www.w3.org/2000/svg" xmlns:xlink="http://www.w3.org/1999/xlink" x="0px" y="0px"
	 viewBox="0 0 500 500" style="enable-background:new 0 0 500 500;" xml:space="preserve">
<g id="BACKGROUND">
	<rect style="fill:#002A44;" width="500" height="500"/>
</g>
<g id="OBJECTS">
	<text transform="matrix(1 0 0 1 105.1699 338.2369)"><tspan x="0" y="0" style="fill:#595BE5; font-family:'DeValencia-Regular'; font-size:41.4518px;">Company</tspan><tspan x="174.22" y="0" style="fill:#FFFFFF; font-family:'DeValencia-Regular'; font-size:41.4518px;"> </tspan><tspan x="190.801" y="0" style="fill:#38EEFF; font-family:'DeValencia-Regular'; font-size:41.4518px;">Name</tspan></text>
	<linearGradient id="SVGID_1_" gradientUnits="userSpaceOnUse" x1="110.4849" y1="202.6974" x2="389.1142" y2="202.6974">
		<stop  offset="0" style="stop-color:#595BE5"/>
		<stop  offset="1" style="stop-color:#38EEFF"/>
	</linearGradient>
	<path style="fill:url(#SVGID_1_);" d="M389.114,238.801c0-11.689-5.27-22.447-14.839-30.293
		c-7.877-6.458-18.317-10.469-27.245-10.469c-1.365,0-2.719,0.09-4.055,0.269c-5.833-13.216-18.887-21.832-33.682-21.832
		c-3.625,0-7.278,0.561-10.769,1.641c-7.074-14.049-21.703-23.204-37.749-23.204c-6.105,0-11.886,1.246-17.247,3.711
		c-8.147-15.51-24.141-25.275-42.052-25.275c-25.19,0-45.889,19.596-47.657,44.343c-18.76,4.5-32.467,21.55-32.467,41.173
		c0,0.486,0.075,0.954,0.213,1.394c-6.395,1.885-11.079,7.801-11.079,14.798c0,8.51,6.924,15.434,15.434,15.434
		c8.51,0,15.434-6.924,15.434-15.434c0-6.942-4.608-12.825-10.925-14.758c0.146-0.452,0.228-0.933,0.228-1.434
		c0-16.347,12.187-30.404,28.347-32.699c2.294-0.326,3.998-2.289,3.998-4.606v-0.431c0-21.215,17.26-38.475,38.475-38.475
		c15.824,0,29.785,9.467,35.566,24.118c0.507,1.284,1.558,2.277,2.868,2.71c1.31,0.432,2.746,0.261,3.918-0.468
		c5.111-3.182,10.812-4.796,16.948-4.796c13.755,0,26.169,8.612,30.892,21.43c0.448,1.217,1.383,2.191,2.581,2.688
		c1.198,0.497,2.549,0.473,3.726-0.069c3.539-1.627,7.453-2.486,11.319-2.486c12.133,0,22.698,7.742,26.287,19.265
		c0.752,2.413,3.294,3.785,5.72,3.09c1.836-0.525,3.764-0.791,5.73-0.791c11.764,0,32.78,10.512,32.78,31.508
		c0.001,0.097-0.083,9.915-6.866,16.771c-4.673,4.724-11.578,7.12-20.522,7.12H181.224c-0.043,0-4.413-0.06-8.701-2.204
		c-5.524-2.762-8.21-7.573-8.21-14.708c0-16.277,15.2-16.895,16.911-16.911h98.934c1.979,6.243,7.825,10.782,14.714,10.782
		c8.51,0,15.434-6.924,15.434-15.434c0-8.51-6.924-15.434-15.434-15.434c-6.889,0-12.736,4.539-14.714,10.782h-98.934
		c-9.067,0-26.216,5.479-26.216,26.216c0,20.737,17.148,26.216,26.216,26.216h171.197c11.521,0,20.652-3.325,27.138-9.881
		C389.152,252.468,389.12,239.306,389.114,238.801z M125.919,241.185c-3.38,0-6.13-2.749-6.13-6.129c0-3.38,2.75-6.13,6.13-6.13
		c3.38,0,6.13,2.75,6.13,6.13C132.049,238.436,129.299,241.185,125.919,241.185z M294.873,218.138c3.38,0,6.129,2.75,6.129,6.13
		c0,3.38-2.749,6.13-6.129,6.13c-3.38,0-6.129-2.75-6.129-6.13C288.743,220.887,291.492,218.138,294.873,218.138z"/>
</g>
<g id="DESIGNED_BY_FREEPIK">
	<g>
		<g id="XMLID_33_">
			<g id="XMLID_401_">
				<path id="XMLID_513_" style="fill:#F8FAFB;" d="M260.104,470.468c-0.432,0.443-0.803,0.931-1.108,1.453l-0.465-0.241
					c-0.067-0.298-0.349-0.503-0.659-0.466c-0.331,0.039-0.568,0.339-0.529,0.67c0.039,0.331,0.339,0.568,0.67,0.529
					c0.066-0.008,0.127-0.026,0.184-0.052l0.451,0.234c-0.251,0.554-0.433,1.139-0.539,1.744l0.747,0.132
					c0.23-1.306,0.85-2.507,1.792-3.473L260.104,470.468z"/>
				<path id="XMLID_502_" style="fill:#F8FAFB;" d="M265.592,468.166c-0.171,0-0.341,0.006-0.51,0.017l-0.074-0.626
					c0.188-0.149,0.296-0.389,0.266-0.645c-0.046-0.393-0.402-0.674-0.795-0.628c-0.393,0.046-0.674,0.402-0.628,0.795
					c0.03,0.254,0.189,0.461,0.404,0.564l0.074,0.624c-0.714,0.116-1.403,0.332-2.06,0.646l0.327,0.684
					c0.934-0.447,1.942-0.673,2.995-0.673c0.496,0,0.993,0.053,1.475,0.158l0.161-0.741
					C266.692,468.225,266.142,468.166,265.592,468.166z"/>
				<path id="XMLID_489_" style="fill:#F8FAFB;" d="M272.194,470.714c0.331-0.04,0.566-0.341,0.526-0.672
					c-0.04-0.331-0.341-0.566-0.672-0.526c-0.309,0.038-0.535,0.304-0.53,0.609l-0.416,0.363c-0.418-0.43-0.889-0.813-1.408-1.139
					l-0.404,0.641c1.134,0.715,2.021,1.726,2.563,2.925l0.69-0.313c-0.251-0.554-0.567-1.072-0.942-1.545l0.402-0.351
					C272.065,470.719,272.129,470.722,272.194,470.714z"/>
				<path id="XMLID_477_" style="fill:#F8FAFB;" d="M265.044,478.375c-0.386,0.023-0.775,0.035-1.157,0.035
					c-0.88,0-1.733-0.061-2.478-0.179c-0.39-0.062-0.846-0.155-1.27-0.292c1.046,1.861,3.069,3.125,5.388,3.125
					c2.855,0,5.262-1.916,5.95-4.504c-0.682,0.449-1.505,0.825-2.459,1.123C267.839,478.05,266.463,478.289,265.044,478.375z"/>
				<path id="XMLID_415_" style="fill:#F8FAFB;" d="M265.592,469.682c-3.352,0-6.08,2.666-6.08,5.944
					c0,0.426,0.046,0.849,0.137,1.261c0.673,0.483,2.706,0.89,5.348,0.731c2.879-0.173,5.297-0.957,6.672-2.158
					c-0.006-0.195-0.021-0.39-0.045-0.582C271.244,471.916,268.65,469.682,265.592,469.682z M263.432,476.197
					c-1.02,0-1.85-0.83-1.85-1.85c0-1.02,0.83-1.85,1.85-1.85c1.02,0,1.85,0.83,1.85,1.85
					C265.282,475.368,264.452,476.197,263.432,476.197z M268.17,475.289c-0.75,0-1.36-0.61-1.36-1.36s0.61-1.361,1.36-1.361
					c0.75,0,1.361,0.61,1.361,1.361S268.92,475.289,268.17,475.289z"/>
			</g>
			<path id="XMLID_376_" style="fill:#F8FAFB;" d="M281.595,471.55c-0.295-0.116-0.805-0.309-1.382-0.237
				c-0.551,0.068-0.844,0.34-0.844,1.007v0.866h2.228v1.717h-2.228v5.455h-1.932v-5.455h-1.34v-1.717h1.34v-0.888
				c0-1.68,0.896-2.783,2.568-2.783c0.643,0,1.157,0.122,1.59,0.308L281.595,471.55z"/>
			<path id="XMLID_350_" style="fill:#F8FAFB;" d="M286.298,474.882c-0.177-0.03-0.358-0.046-0.526-0.046
				c-0.896,0-1.51,0.548-1.51,1.613v3.908h-1.932v-7.172h1.873v0.785c0.451-0.674,1.14-0.977,2.021-0.977
				c0.414,0,0.848,0.128,1.094,0.337L286.298,474.882z"/>
			<path id="XMLID_299_" style="fill:#F8FAFB;" d="M293.965,476.76c0,0.222-0.015,0.489-0.037,0.651h-5.085
				c0.207,1.036,0.933,1.488,1.843,1.488c0.622,0,1.295-0.252,1.813-0.688l1.133,1.243c-0.814,0.748-1.85,1.088-3.057,1.088
				c-2.198,0-3.723-1.495-3.723-3.753c0-2.257,1.48-3.797,3.627-3.797C292.544,472.992,293.958,474.525,293.965,476.76z
				 M288.851,476.094h3.175c-0.177-0.918-0.733-1.436-1.562-1.436C289.554,474.658,289.021,475.206,288.851,476.094z"/>
			<path id="XMLID_276_" style="fill:#F8FAFB;" d="M301.618,476.76c0,0.222-0.015,0.489-0.037,0.651h-5.085
				c0.207,1.036,0.933,1.488,1.843,1.488c0.622,0,1.295-0.252,1.814-0.688l1.132,1.243c-0.814,0.748-1.85,1.088-3.057,1.088
				c-2.198,0-3.723-1.495-3.723-3.753c0-2.257,1.48-3.797,3.627-3.797C300.197,472.992,301.611,474.525,301.618,476.76z
				 M296.504,476.094h3.175c-0.178-0.918-0.733-1.436-1.562-1.436C297.207,474.658,296.674,475.206,296.504,476.094z"/>
			<path id="XMLID_231_" style="fill:#F8FAFB;" d="M309.964,476.767c0,2.154-1.495,3.775-3.471,3.775
				c-0.962,0-1.643-0.378-2.109-0.933v3.708h-1.924v-10.133h1.887v0.792c0.466-0.585,1.155-0.984,2.139-0.984
				C308.469,472.992,309.964,474.613,309.964,476.767z M304.287,476.767c0,1.132,0.748,1.976,1.843,1.976
				c1.14,0,1.85-0.881,1.85-1.976c0-1.095-0.71-1.976-1.85-1.976C305.035,474.791,304.287,475.635,304.287,476.767z"/>
			<path id="XMLID_189_" style="fill:#F8FAFB;" d="M313.068,470.839c0,0.696-0.54,1.229-1.236,1.229
				c-0.696,0-1.229-0.533-1.229-1.229c0-0.696,0.533-1.243,1.229-1.243C312.527,469.595,313.068,470.143,313.068,470.839z
				 M312.809,480.357h-1.932v-7.172h1.932V480.357z"/>
			<path id="XMLID_161_" style="fill:#F8FAFB;" d="M316.032,475.738l2.701-2.554h2.368l-3.479,3.375l3.501,3.797h-2.376
				l-2.716-2.901v2.901H314.1v-10.658h1.932V475.738z"/>
		</g>
		<g>
			<path style="fill:#F8FAFB;" d="M184.412,480.292v-1.055c-0.527,0.718-1.391,1.23-2.387,1.23c-1.846,0-3.149-1.406-3.149-3.706
				c0-2.256,1.289-3.721,3.149-3.721c0.952,0,1.816,0.469,2.387,1.245v-3.765h1.099v9.77H184.412z M184.412,478.373v-3.208
				c-0.395-0.615-1.245-1.143-2.124-1.143c-1.421,0-2.27,1.172-2.27,2.739c0,1.567,0.85,2.724,2.27,2.724
				C183.168,479.486,184.017,478.988,184.412,478.373z"/>
			<path style="fill:#F8FAFB;" d="M186.932,476.747c0-2.051,1.465-3.706,3.486-3.706c2.139,0,3.398,1.67,3.398,3.794v0.279h-5.727
				c0.088,1.333,1.025,2.446,2.549,2.446c0.805,0,1.626-0.322,2.182-0.893l0.527,0.718c-0.703,0.703-1.655,1.084-2.812,1.084
				C188.44,480.468,186.932,478.959,186.932,476.747z M190.403,473.95c-1.509,0-2.256,1.274-2.314,2.358h4.643
				C192.718,475.253,192.015,473.95,190.403,473.95z"/>
			<path style="fill:#F8FAFB;" d="M194.607,479.354l0.571-0.791c0.469,0.542,1.362,1.011,2.329,1.011c1.084,0,1.67-0.513,1.67-1.216
				c0-1.714-4.38-0.659-4.38-3.281c0-1.098,0.952-2.036,2.636-2.036c1.201,0,2.051,0.454,2.622,1.026l-0.513,0.762
				c-0.424-0.513-1.201-0.894-2.109-0.894c-0.967,0-1.567,0.483-1.567,1.113c0,1.552,4.38,0.527,4.38,3.281
				c0,1.187-0.952,2.139-2.783,2.139C196.306,480.468,195.325,480.116,194.607,479.354z"/>
			<path style="fill:#F8FAFB;" d="M201.477,471.474c0-0.41,0.337-0.747,0.732-0.747c0.41,0,0.747,0.337,0.747,0.747
				c0,0.41-0.337,0.732-0.747,0.732C201.814,472.206,201.477,471.884,201.477,471.474z M201.667,480.292v-7.075h1.099v7.075H201.667
				z"/>
			<path style="fill:#F8FAFB;" d="M204.582,482.108l0.556-0.82c0.586,0.703,1.289,0.967,2.3,0.967c1.172,0,2.27-0.571,2.27-2.124
				v-1.011c-0.513,0.718-1.377,1.26-2.373,1.26c-1.845,0-3.149-1.377-3.149-3.662c0-2.27,1.289-3.677,3.149-3.677
				c0.952,0,1.802,0.469,2.373,1.245v-1.069h1.098v6.87c0,2.344-1.641,3.076-3.369,3.076
				C206.237,483.163,205.417,482.928,204.582,482.108z M209.709,478.256v-3.091c-0.381-0.615-1.23-1.143-2.109-1.143
				c-1.421,0-2.27,1.128-2.27,2.695c0,1.553,0.849,2.695,2.27,2.695C208.478,479.413,209.328,478.871,209.709,478.256z"/>
			<path style="fill:#F8FAFB;" d="M217.413,480.292v-4.629c0-1.245-0.63-1.64-1.582-1.64c-0.865,0-1.685,0.527-2.095,1.099v5.17
				h-1.099v-7.075h1.099v1.025c0.498-0.586,1.464-1.201,2.519-1.201c1.48,0,2.256,0.747,2.256,2.285v4.966H217.413z"/>
			<path style="fill:#F8FAFB;" d="M219.932,476.747c0-2.051,1.465-3.706,3.486-3.706c2.139,0,3.398,1.67,3.398,3.794v0.279h-5.727
				c0.088,1.333,1.025,2.446,2.549,2.446c0.806,0,1.626-0.322,2.183-0.893l0.527,0.718c-0.703,0.703-1.655,1.084-2.812,1.084
				C221.441,480.468,219.932,478.959,219.932,476.747z M223.404,473.95c-1.509,0-2.256,1.274-2.314,2.358h4.643
				C225.718,475.253,225.015,473.95,223.404,473.95z"/>
			<path style="fill:#F8FAFB;" d="M233.35,480.292v-1.055c-0.527,0.718-1.392,1.23-2.388,1.23c-1.846,0-3.149-1.406-3.149-3.706
				c0-2.256,1.289-3.721,3.149-3.721c0.952,0,1.817,0.469,2.388,1.245v-3.765h1.098v9.77H233.35z M233.35,478.373v-3.208
				c-0.396-0.615-1.245-1.143-2.124-1.143c-1.421,0-2.27,1.172-2.27,2.739c0,1.567,0.849,2.724,2.27,2.724
				C232.105,479.486,232.954,478.988,233.35,478.373z"/>
			<path style="fill:#F8FAFB;" d="M239.692,480.292v-9.77h1.098v3.765c0.572-0.776,1.421-1.245,2.388-1.245
				c1.845,0,3.149,1.465,3.149,3.721c0,2.299-1.304,3.706-3.149,3.706c-0.996,0-1.86-0.513-2.388-1.23v1.055H239.692z
				 M242.9,479.486c1.436,0,2.285-1.157,2.285-2.724c0-1.568-0.85-2.739-2.285-2.739c-0.864,0-1.728,0.527-2.109,1.143v3.208
				C241.171,478.988,242.036,479.486,242.9,479.486z"/>
			<path style="fill:#F8FAFB;" d="M247.528,482.064c0.161,0.073,0.425,0.117,0.601,0.117c0.483,0,0.805-0.161,1.055-0.747
				l0.469-1.069l-2.959-7.148h1.187l2.358,5.801l2.344-5.801h1.201l-3.545,8.51c-0.425,1.025-1.143,1.421-2.08,1.435
				c-0.234,0-0.601-0.044-0.805-0.103L247.528,482.064z"/>
		</g>
	</g>
</g>
</svg>
